<svg xmlns="http://www.w3.org/2000/svg" xmlns:xlink="http://www.w3.org/1999/xlink" width="500" zoomAndPan="magnify" viewBox="0 0 375 374.999991" height="500" preserveAspectRatio="xMidYMid meet" version="1.0"><defs><clipPath id="06457b8eec"><path d="M 37.5 37.5 L 337.5 37.5 L 337.5 337.5 L 37.5 337.5 Z M 37.5 37.5 " clip-rule="nonzero"/></clipPath></defs><g clip-path="url(#06457b8eec)"><path fill="#a6a6a6" d="M 337.546875 125.820312 C 337.546875 101.433594 317.773438 81.664062 293.386719 81.664062 C 293.386719 57.277344 273.617188 37.503906 249.226562 37.503906 C 223.917969 37.503906 202.222656 55.574219 197.636719 80.460938 L 187.523438 135.394531 L 177.40625 80.460938 C 172.824219 55.574219 151.121094 37.507812 125.8125 37.507812 C 101.425781 37.507812 81.65625 57.277344 81.65625 81.664062 C 57.269531 81.664062 37.5 101.433594 37.5 125.820312 C 37.5 151.125 55.566406 172.828125 80.457031 177.410156 L 135.386719 187.527344 L 80.457031 197.640625 C 55.566406 202.226562 37.5 223.925781 37.5 249.230469 C 37.5 273.625 57.269531 293.390625 81.65625 293.390625 C 81.65625 317.78125 101.425781 337.550781 125.8125 337.550781 L 125.816406 337.550781 C 151.121094 337.550781 172.824219 319.484375 177.40625 294.59375 L 187.523438 239.660156 L 197.636719 294.59375 C 202.222656 319.484375 223.917969 337.550781 249.226562 337.550781 C 273.617188 337.550781 293.386719 317.78125 293.386719 293.390625 C 317.773438 293.390625 337.546875 273.625 337.546875 249.230469 C 337.546875 223.925781 319.476562 202.226562 294.585938 197.640625 L 239.652344 187.527344 L 294.585938 177.410156 C 319.476562 172.828125 337.546875 151.125 337.546875 125.820312 " fill-opacity="1" fill-rule="nonzero"/></g></svg>