<svg xmlns="http://www.w3.org/2000/svg" xmlns:xlink="http://www.w3.org/1999/xlink" width="1080" zoomAndPan="magnify" viewBox="0 0 810 809.999993" height="1080" preserveAspectRatio="xMidYMid meet" version="1.0"><defs><clipPath id="b8990ed70b"><path d="M 218 20.683594 L 592 20.683594 L 592 420 L 218 420 Z M 218 20.683594 " clip-rule="nonzero"/></clipPath><clipPath id="ba3b5fc777"><path d="M 56 421 L 754 421 L 754 789.433594 L 56 789.433594 Z M 56 421 " clip-rule="nonzero"/></clipPath><clipPath id="1ebd8be0fb"><path d="M 323 539.859375 L 416 539.859375 L 416 638 L 323 638 Z M 323 539.859375 " clip-rule="nonzero"/></clipPath><clipPath id="6320525d06"><path d="M 284 638 L 456 638 L 456 728.859375 L 284 728.859375 Z M 284 638 " clip-rule="nonzero"/></clipPath></defs><rect x="-81" width="972" fill="#ffffff" y="-80.999999" height="971.999992" fill-opacity="1"/><rect x="-81" width="972" fill="#ffffff" y="-80.999999" height="971.999992" fill-opacity="1"/><g clip-path="url(#b8990ed70b)"><path fill="#000000" d="M 405.039062 419.441406 C 507.945312 419.441406 591.652344 310.21875 591.652344 207.316406 C 591.652344 104.417969 507.945312 20.683594 405.039062 20.683594 C 302.132812 20.683594 218.421875 104.417969 218.421875 207.316406 C 218.4375 310.210938 302.144531 419.441406 405.039062 419.441406 Z M 405.039062 419.441406 " fill-opacity="1" fill-rule="nonzero"/></g><g clip-path="url(#ba3b5fc777)"><path fill="#000000" d="M 545.136719 421.355469 C 508.9375 448.9375 463.78125 465.34375 414.863281 465.34375 L 395.21875 465.34375 C 346.292969 465.34375 301.125 448.925781 264.9375 421.355469 C 146.742188 440.460938 56.484375 542.910156 56.484375 666.492188 C 56.484375 734.382812 212.535156 789.433594 405.039062 789.433594 C 597.539062 789.433594 753.597656 734.382812 753.597656 666.492188 C 753.597656 542.910156 663.332031 440.460938 545.136719 421.355469 Z M 545.136719 421.355469 " fill-opacity="1" fill-rule="nonzero"/></g><g clip-path="url(#1ebd8be0fb)"><path fill="#000000" d="M 369.863281 637.898438 C 395.203125 637.898438 415.816406 611.042969 415.816406 585.746094 C 415.816406 560.445312 395.203125 539.859375 369.863281 539.859375 C 344.523438 539.859375 323.90625 560.445312 323.90625 585.746094 C 323.910156 611.042969 344.523438 637.898438 369.863281 637.898438 Z M 369.863281 637.898438 " fill-opacity="1" fill-rule="nonzero"/></g><g clip-path="url(#6320525d06)"><path fill="#000000" d="M 404.359375 638.367188 C 395.445312 645.148438 384.328125 649.183594 372.28125 649.183594 L 367.445312 649.183594 C 355.394531 649.183594 344.273438 645.144531 335.363281 638.367188 C 306.257812 643.066406 284.03125 668.253906 284.03125 698.636719 C 284.03125 715.324219 322.457031 728.859375 369.863281 728.859375 C 417.265625 728.859375 455.691406 715.324219 455.691406 698.636719 C 455.691406 668.253906 433.464844 643.066406 404.359375 638.367188 Z M 404.359375 638.367188 " fill-opacity="1" fill-rule="nonzero"/></g></svg>